# xmcd
# 
# Track frame offsets:
#	150
#	15205
#	30805
#	44812
#	60562
#	73580
#	90897
#	107080
#	120982
#	137592
#	146860
#	161800
#	178717
#	190550
#	207012
#
# Disc length: 2900 seconds
#
# Revision: 1
# Processed by: cddbd v1.4PL0 Copyright (c) Steve Scherf et al.
# Submitted via: Audio-CD-Archiv 2.10.446
#
DISCID=be0b520f
DTITLE=Brent Parlane - Tex Loves Daisy
DYEAR=1900
DGENRE=country
TTITLE0=Happiness
TTITLE1=Am I Ever Gonna See Your Face Again
TTITLE2=The Risk
TTITLE3=A Million Years
TTITLE4=Dunno
TTITLE5=Mystery to Me
TTITLE6=Not That Kind Of Girl
TTITLE7=True Believers
TTITLE8=Tex Loves Daisy
TTITLE9=Remember me
TTITLE10=That Lovin You Feelin' Again
TTITLE11=The Station
TTITLE12=The Blues Song
TTITLE13=Wife Of A Prisoner
TTITLE14=Sam Hunt
EXTD=
EXTT0=
EXTT1=
EXTT2=
EXTT3=
EXTT4=
EXTT5=
EXTT6=
EXTT7=
EXTT8=
EXTT9=
EXTT10=
EXTT11=
EXTT12=
EXTT13=
EXTT14=
PLAYORDER=
